# xmcd
#
# Track frame offsets: 
#        150
#        12402
#        24768
#        36222
#        48137
#        61552
#        72804
#        86490
#        97812
#        109642
#        123090
#        134503
#        144693
#        156479
#        167808
#        180573
#        193491
#        205313
#        216996
#        228718
#        240113
#        253665
#        264069
#        279105
#        290951
#
# Disc length: 4021 seconds
#
# Revision: 0
# Processed by: cddbd v1.5.2PL0 Copyright (c) Steve Scherf et al.
# Submitted via: ExactAudioCopyFreeDBPlugin 1.0
#
DISCID=5e0fb319
DTITLE=Lowell Fulson - Trouble, Trouble - The Definitive Early Years C
DTITLE=ollection
DYEAR=2013
DGENRE=Blues
TTITLE0=Ain't Nobody's Business
TTITLE1=Jimmy's Blues
TTITLE2=Everyday I Have The Blues
TTITLE3=Rocking After Midnight
TTITLE4=Cold Hearted Woman
TTITLE5=Low Society Blues
TTITLE6=Blue Shadows
TTITLE7=Come Back Baby
TTITLE8=Baby Won't You Jump With Me
TTITLE9=Sinner's Prayer
TTITLE10=Lonesome Christmas Part 1
TTITLE11=Lonesome Christmas Part 2
TTITLE12=I'm A Night Owl Part 1
TTITLE13=Blues With A Feelin'
TTITLE14=Let Me Ride Your Little Automobile
TTITLE15=Fulson's Guitar Boogie
TTITLE16=The Day Is Passing On
TTITLE17=Best Wishes
TTITLE18=I've Been Mistreated
TTITLE19=Ride Until The Sun Goes Down
TTITLE20=The Blues Come Rollin' In
TTITLE21=My Daily Prayer
TTITLE22=Is Your Friend Really Your Friend
TTITLE23=Let Me Love You Baby
TTITLE24=Market Street Blues
EXTD=
EXTT0=
EXTT1=
EXTT2=
EXTT3=
EXTT4=
EXTT5=
EXTT6=
EXTT7=
EXTT8=
EXTT9=
EXTT10=
EXTT11=
EXTT12=
EXTT13=
EXTT14=
EXTT15=
EXTT16=
EXTT17=
EXTT18=
EXTT19=
EXTT20=
EXTT21=
EXTT22=
EXTT23=
EXTT24=
PLAYORDER=
